<?xml version="1.0" encoding="utf-8"?>
<svg viewBox="92.386 71.516 138.873 138.332" width="138.873" height="138.332" xmlns="http://www.w3.org/2000/svg">
    <path id="path24" style="fill:#292829;fill-opacity:1;fill-rule:nonzero;stroke:none"
          d="m 1227.29,1859.27 c -24.94,-42.71 -57.53,-80.68 -94.64,-112.92 -37.17,-32.11 -78.61,-59.67 -123.9,-78.75 -45.242,-19.1 -93.145,-31.3 -141.965,-36.57 -48.953,-4.52 -98.433,-1.01 -146.492,8.84 l -35.773,8.88 -34.723,12.39 c -5.891,1.83 -11.527,4.27 -17.016,7.05 l -16.707,7.85 c -5.547,2.66 -11.23,5.07 -16.679,7.92 l -15.887,9.44 c -42.5,24.72 -81.828,55.81 -114.367,93.18 -32.832,37.03 -60.188,79.01 -80.86,124.31 -19.89,45.67 -32.351,94.48 -37.91,144.29 l -2.812,37.55 0.976,37.71 c -0.293,12.66 2.317,25.03 3.621,37.57 l 2.375,18.77 c 0.891,6.24 2.688,12.3 3.992,18.49 3.137,12.2 4.954,24.83 9.133,36.77 l 12.071,36.03 c 10.128,23.2 19.914,46.77 33.41,68.43 25.801,43.8 57.73,84.64 96.355,118.71 38.567,34.01 82.41,62.27 129.785,83.51 47.266,21.76 98.828,33.49 150.801,39.06 52.168,5.92 105.43,2.02 157.039,-9.44 104.003,-21.66 199.603,-80.52 271.433,-161 9.03,-11.3 23.89,-6.6 15.02,7.48 -69.33,102.25 -180.74,178.59 -305.601,206.7 -124.656,28.11 -260.098,7.84 -371.922,-55.31 -112.004,-63.03 -197.649,-168.19 -238.574,-287.3 -42.328,-119.18 -36.067,-251.04 8.914,-364 44.504,-113.85 131.648,-206.31 234.812,-260.65 51.645,-27.32 107.434,-45.29 164.067,-53.46 56.765,-7.72 114.16,-4.98 169.004,6.16 54.871,11.26 107.22,31.75 154.43,60.11 46.98,28.81 88.62,65.31 123.11,107.21 34.49,41.88 61.81,89.21 80.76,139.5 4.07,12.81 9.44,25.18 12.64,38.23 l 9.53,39.12 5.87,39.84 c 1.66,13.31 1.52,26.8 2.5,40.2 l -16.84,0.42 c 0.68,-59.03 -10.67,-118.41 -33.61,-173.54 -22.87,-55.14 -57.22,-105.96 -100.36,-148.32 -43.11,-42.42 -95.01,-76.33 -151.831,-98.73 -56.758,-22.49 -118.449,-33.29 -180.203,-31.82 -61.77,1.37 -123.403,15.27 -180.168,41 -56.77,25.63 -108.555,62.96 -151.297,109.11 -42.778,46.08 -76.446,100.98 -97.988,160.6 -21.653,59.56 -30.989,123.83 -27.676,187.69 3.086,60.81 18.601,121.19 45.379,176.26 26.699,55.1 64.519,104.81 110.261,145.47 45.727,40.7 99.309,72.32 156.703,92.64 57.372,20.41 118.473,29.41 179.032,27.27 121.394,-3.69 238.998,-55.29 325.358,-139.83 86.99,-84.06 142.42,-200.12 153.62,-323.75 2.03,-16.54 18.88,-17.08 16.83,0.41 -11.29,127.84 -68.52,248.22 -158.53,335.23 -89.31,87.55 -211.231,141.01 -336.856,144.76 -62.661,2.19 -125.918,-7.15 -185.344,-28.33 -59.395,-21.07 -114.844,-53.82 -162.141,-95.96 -47.304,-42.08 -86.441,-93.53 -114.09,-150.56 -27.722,-56.97 -43.769,-119.5 -47.031,-182.43 -3.445,-66.05 6.16,-132.55 28.543,-194.27 22.277,-61.77 57.082,-118.63 101.328,-166.38 44.223,-47.81 97.824,-86.51 156.614,-113.13 58.769,-26.68 122.656,-41.16 186.628,-42.62 63.977,-1.58 127.922,9.55 186.821,32.82 58.928,23.17 112.758,58.29 157.478,102.21 44.8,43.88 80.47,96.54 104.25,153.72 23.89,57.18 35.75,118.81 35.12,180.06 0.31,15.9 -15.94,15.73 -16.84,0.42 -0.95,-12.86 -0.81,-25.84 -2.39,-38.62 l -5.61,-38.28 -9.1,-37.57 c -3,-12.57 -8.26,-24.42 -12.12,-36.75 -18.1,-48.34 -44.22,-93.89 -77.24,-134.3 -33.03,-40.35 -72.81,-75.84 -117.99,-103.56 -45.304,-27.5 -95.543,-47.49 -148.312,-58.68 -52.688,-10.99 -108.086,-14.41 -162.778,-6.96 -54.597,7.49 -108.503,24.34 -158.55,50.28 -50.063,25.87 -96.203,60.76 -135.5,103.03 -39.485,42.11 -70.84,92.34 -93.328,146.7 -22.383,54.41 -35.168,113.33 -37.778,173.24 -2.945,59.97 6.684,120.74 25.703,178.52 38.379,115.4 119.77,218.83 227.953,280.31 107.352,62.07 238.348,84.31 359.215,57.55 120.995,-25.65 229.905,-97.91 298.015,-196.19 l 15.09,7.7 c -74.05,83.23 -172.77,144.1 -280.249,166.64 -53.34,11.9 -108.43,15.96 -162.324,9.93 -53.743,-5.69 -107.063,-17.82 -156.016,-40.24 -49.023,-21.92 -94.406,-51.1 -134.34,-86.24 -39.93,-35.23 -73.062,-77.42 -99.793,-122.73 -13.973,-22.41 -24.148,-46.78 -34.617,-70.81 l -12.578,-37.29 c -4.278,-12.36 -6.235,-25.43 -9.492,-38.07 -1.34,-6.4 -3.188,-12.67 -4.133,-19.14 l -2.473,-19.43 c -1.394,-12.97 -4.051,-25.81 -3.789,-38.89 l -1.023,-39.03 2.871,-38.86 c 5.676,-51.56 18.562,-102.13 39.172,-149.49 21.375,-46.95 49.656,-90.45 83.672,-128.8 33.691,-38.71 74.382,-70.95 118.417,-96.6 l 16.461,-9.77 c 5.637,-2.96 11.528,-5.47 17.27,-8.23 l 17.305,-8.13 c 5.703,-2.88 11.543,-5.41 17.644,-7.32 l 35.985,-12.83 37.089,-9.23 c 49.797,-10.25 101.036,-13.86 151.75,-9.18 50.586,5.43 100.246,18.08 147.121,37.9 46.95,19.81 89.88,48.34 128.4,81.62 38.4,33.44 72.15,72.79 97.99,117.03 8.99,14.26 -6.01,21.97 -14.58,8.45"
          transform="matrix(0.133333, 0, 0, -0.133333, 53.860298, 424.036621)"/>
</svg>