<?xml version="1.0" encoding="utf-8"?>
<svg viewBox="259.03 76.301 138.314 139.694" width="138.314" height="139.694" xmlns="http://www.w3.org/2000/svg">
    <path id="path26" style="fill:#292829;fill-opacity:1;fill-rule:nonzero;stroke:none"
          d="m 2270.26,2544.77 c 138.36,-67.74 240.69,-203.43 269.96,-354.88 29.34,-151.18 -12.39,-316.05 -115.89,-431.58 -50.87,-57.99 -114.61,-104.83 -185.74,-135.19 -71.39,-29.76 -149.49,-43.02 -226.71,-38.9 -77.1,4.24 -154.08,24.85 -221.52,63.49 -67.63,38.04 -126.71,91.24 -171.8,154.77 -5.17,6.78 -10.39,8.51 -14.04,6.13 -3.34,-2.15 -5.02,-8.54 0.19,-15.68 69.23,-104.29 177.95,-181.56 299.24,-214.06 60.6,-16.16 124.08,-22.43 186.58,-16.16 62.47,6.1 123.84,23.26 180.23,50.63 112.77,54.51 205.52,149.86 254,265.01 24.57,57.29 38.64,118.85 41.79,180.71 3.14,61.78 -3.7,124.35 -22.83,183.17 -37.09,117.95 -117.08,220.47 -220.56,285.11 -103.06,66.13 -229.85,89.67 -348.64,72.21 -119.63,-16.52 -230.51,-79.3 -308.29,-169.13 -77.97,-89.61 -124.32,-206.65 -124.21,-324.83 l 16.84,-0.43 c -0.27,62.77 12.1,125.85 36.53,184.25 24.34,58.44 60.59,112.12 105.88,156.95 45.24,44.86 99.51,80.83 158.77,104.94 59.27,24.2 123.45,36.38 187.67,36.04 64.19,-0.21 128.41,-13.28 187.62,-38.4 59.24,-25.05 113.4,-62.01 158.49,-107.85 45.14,-45.8 81.2,-100.5 105.4,-160 24.25,-59.49 36.53,-123.73 36.33,-187.9 -0.48,-64.15 -13.39,-128.11 -38.15,-187.13 -24.65,-59.03 -61,-113.04 -106.16,-158.14 -45.12,-45.14 -99.01,-81.38 -157.75,-105.86 -58.71,-24.58 -122.24,-37.27 -185.71,-37.42 -63.47,-0.27 -126.87,11.65 -185.58,35.32 -58.71,23.59 -112.69,58.76 -158.04,102.75 -45.4,43.96 -82.2,96.74 -107.59,154.54 -25.43,57.78 -39.31,120.55 -40.85,183.7 -0.87,16.19 -17.07,16.32 -16.82,-0.42 -2.83,-118.57 41.53,-238.6 120.02,-331.44 78.23,-92.95 192.02,-159.14 315.84,-176.41 122.92,-18.4 254.44,7.4 360.71,76.94 106.45,68.58 187.05,177.15 221.12,299.99 35.35,122.56 21.96,257.5 -33.99,370.99 -55.53,113.6 -153.17,205.49 -268.91,251 -115.26,46.19 -245.34,48.32 -357.85,7.08 -112.66,-41.11 -205.54,-123.88 -258.39,-223.89 -6.91,-14.06 5.64,-22.58 14.13,-9.18 61.13,90.02 152.8,157.79 256.11,189.23 103.42,31.04 217.51,25 317.46,-16.43 100.09,-41.75 184.45,-120.38 234.37,-217.45 24.88,-48.52 41.98,-101.43 48.27,-156 6.16,-54.54 3.16,-110.21 -9.33,-163.75 -12.53,-53.65 -34.93,-105.14 -65.9,-150.9 -31.27,-45.56 -70.7,-85.41 -115.68,-117.14 -89.94,-63.4 -202.08,-94.38 -310.98,-83.2 -108.63,9.82 -212.54,58.02 -289.87,134.46 -77.34,76.43 -127.52,178.91 -141.28,287.97 -1.37,15.71 -16.47,14.61 -16.79,-1.45 1.8,-114.4 48.11,-230.15 129.63,-316.68 81.04,-86.98 196.55,-142.26 316.81,-152.24 120.42,-11.91 244.48,25.16 341.3,97.34 97.22,71.9 167.62,179.7 191.63,297.58 24.55,117.23 8.13,242.98 -50.27,346.25 -57.02,103.68 -151.06,184.7 -259.6,225.82 -54.13,21.04 -112.03,30.98 -169.45,31.29 -57.45,0.34 -114.69,-8.95 -168.45,-27.83 -108.09,-37.09 -199.55,-115 -256.94,-211.56 -8.22,-13.8 6.57,-21.89 14.38,-8.73 55.34,93.16 143.58,168.47 247.84,204.31 51.88,18.25 107.11,27.25 162.62,27 55.48,-0.26 111.37,-9.79 163.64,-30.08 104.83,-39.61 195.81,-117.81 251,-217.95 56.55,-99.7 72.46,-221.31 48.85,-334.69 -23.13,-113.96 -91.2,-218.28 -185.22,-287.85 -93.67,-69.82 -213.56,-105.7 -330.11,-94.1 -116.32,9.71 -227.93,63.19 -306.22,147.42 -78.71,83.79 -123.21,195.69 -124.65,306.15 l -16.79,-1.45 c 14.07,-109.52 62.4,-213.78 139.57,-291.58 76.55,-77.81 178.72,-130.76 287.91,-144.41 108.66,-13.25 223.4,8.28 317.13,68.26 93.75,58.58 168.34,150.12 201.91,256.35 36.04,111.7 30.01,236.07 -16.71,342.95 -46.95,106.91 -133.7,194.65 -238.44,243.34 -104.44,49.08 -226.6,59.57 -337.26,27.54 -110.85,-30.97 -209.64,-102.57 -274.62,-198.61 l 14.13,-9.18 c 50.71,96.73 140.29,176.98 249.1,216.95 108.67,40.08 234.64,38.22 346.2,-6.34 112.06,-43.91 206.7,-132.88 260.51,-242.83 54.22,-109.8 67.24,-240.61 32.99,-359.27 -32.99,-118.92 -111.1,-224.1 -214.22,-290.48 -102.93,-67.3 -230.24,-92.15 -349.28,-74.27 -119.81,16.78 -229.82,80.96 -305.44,170.98 -75.83,89.92 -118.61,205.95 -115.72,320.6 l -16.82,-0.42 c 1.57,-65.3 15.93,-130.28 42.29,-190.06 26.25,-59.84 64.31,-114.42 111.29,-159.88 46.93,-45.51 102.74,-81.88 163.52,-106.27 60.76,-24.5 126.36,-36.82 191.99,-36.52 65.63,0.18 131.37,13.33 192.1,38.76 60.76,25.36 116.5,62.84 163.14,109.53 46.69,46.64 84.26,102.5 109.75,163.58 25.58,61.04 38.92,127.22 39.39,193.53 0.22,66.31 -12.49,132.77 -37.58,194.29 -25.04,61.54 -62.32,118.08 -108.98,165.43 -46.64,47.39 -102.62,85.6 -163.88,111.51 -61.24,26 -127.68,39.52 -194.05,39.74 -66.34,0.37 -132.73,-12.2 -194.02,-37.22 -61.34,-24.92 -117.47,-62.11 -164.3,-108.47 -46.85,-46.33 -84.35,-101.84 -109.58,-162.28 -25.3,-60.41 -38.17,-125.71 -37.96,-190.61 -0.42,-16.7 16.2,-16.47 16.84,-0.43 -0.19,114.25 44.59,227.28 119.89,314 75.19,86.89 182.29,147.69 297.96,163.69 114.94,16.95 237.55,-5.68 337.27,-69.63 100.17,-62.5 177.66,-161.69 213.59,-275.78 18.55,-56.9 25.17,-117.47 22.18,-177.3 -3.03,-59.91 -16.62,-119.48 -40.38,-174.93 -46.85,-111.5 -136.7,-203.89 -245.86,-256.69 -54.61,-26.51 -114.01,-43.12 -174.52,-49.04 -60.52,-6.1 -122.05,0.01 -180.68,15.66 -117.42,31.45 -222.71,106.32 -289.75,207.34 l -13.85,-9.55 c 46.53,-65.63 107.51,-120.59 177.37,-159.86 69.65,-39.93 149.2,-61.27 228.82,-65.67 79.73,-4.26 160.43,9.44 234.19,40.19 73.52,31.36 139.36,79.72 191.91,139.64 l 10,11.09 9,11.94 17.84,24 c 6.12,7.89 10.62,16.85 15.98,25.25 5.05,8.59 10.55,16.93 15.21,25.74 17.89,35.57 33.75,72.42 43.35,111.14 20.52,77.05 23.25,158.47 8.37,236.7 -30.23,156.55 -135.92,296.66 -278.89,366.71 -15.83,7.56 -22.77,-7.79 -7.6,-15.03"
          transform="matrix(0.133333, 0, 0, -0.133333, 53.860298, 424.036621)"/>
</svg>