<?xml version="1.0" encoding="utf-8"?>
<svg viewBox="-1048.537 -140.57 598.856 617.03" width="598.856" height="617.03" xmlns="http://www.w3.org/2000/svg">
    <path id="path18" style="fill:#211d1d;fill-opacity:1;fill-rule:nonzero;stroke:none"
          d="M -1046.562 8913.542 C -1103.792 9186.132 -1101.562 9470.122 -1038.392 9741.502 C -994.172 9931.452 -925.122 10103.342 -822.692 10268.642 C -730.422 10417.542 -618.592 10547.792 -484.292 10665.272 C -356.352 10777.192 -208.512 10873.422 -50.602 10949.942 C 28.948 10988.482 100.508 11017.642 185.978 11046.642 C 270.078 11075.042 355.918 11098.442 442.828 11116.642 C 486.788 11125.842 531.038 11133.742 575.478 11140.242 C 597.238 11143.442 607.938 11144.842 632.618 11147.742 C 654.968 11150.342 677.358 11152.542 699.778 11154.542 C 788.738 11162.142 878.158 11164.442 967.388 11161.342 C 1011.648 11159.842 1055.858 11156.942 1099.938 11152.842 C 1122.388 11150.642 1144.808 11148.142 1167.178 11145.342 C 1169.348 11145.042 1182.648 11143.342 1176.618 11144.142 C 1181.408 11143.542 1186.198 11142.842 1190.978 11142.142 C 1202.938 11140.442 1214.888 11138.542 1226.818 11136.642 C 1315.198 11122.442 1402.688 11102.742 1488.538 11077.442 C 1661.178 11026.442 1817.878 10956.682 1971.738 10859.852 C 2153.258 10745.622 2313.528 10599.012 2447.848 10432.052 C 2581.878 10265.452 2689.918 10075.112 2760.708 9873.262 C 2832.278 9669.192 2866.078 9455.602 2851.248 9239.572 C 2843.848 9131.952 2823.498 9025.592 2790.958 8921.842 C 2772.108 8861.742 2747.548 8803.822 2726.428 8744.552 C 2715.008 8712.522 2704.808 8679.952 2698.048 8646.592 C 2692.038 8616.952 2685.768 8585.632 2691.858 8555.552 C 2701.508 8507.872 2737.628 8465.222 2768.948 8429.962 C 2808.728 8385.192 2853.688 8344.912 2900.158 8307.222 C 2905.758 8302.692 2911.648 8298.392 2917.028 8293.592 C 2917.008 8293.612 2921.938 8289.032 2918.248 8293.582 C 2918.458 8293.322 2915.188 8300.382 2917.978 8295.662 C 2919.458 8293.152 2918.688 8294.882 2918.588 8297.802 C 2918.838 8290.382 2916.568 8295.102 2918.948 8297.462 C 2916.058 8294.602 2915.878 8294.382 2918.968 8296.992 C 2921.728 8299.332 2922.128 8301.302 2918.598 8296.742 C 2920.618 8299.352 2923.428 8296.122 2919.838 8297.562 C 2914.238 8299.802 2928.658 8293.732 2920.508 8298.212 C 2907.598 8305.312 2885.068 8306.662 2870.718 8310.202 C 2813.738 8324.262 2756.448 8340.132 2697.848 8345.832 C 2676.508 8347.912 2654.158 8347.552 2634.138 8339.192 C 2605.308 8327.132 2581.858 8303.952 2562.678 8279.822 C 2526.528 8234.332 2492.368 8187.582 2454.598 8143.352 C 2378.808 8054.602 2296.028 7971.842 2207.458 7895.852 C 2032.818 7746.002 1833.928 7622.782 1621.968 7533.102 C 1412.018 7444.282 1186.638 7387.932 959.078 7372.302 C 739.568 7357.222 521.468 7378.852 310.278 7438.892 C 113.928 7494.712 -70.102 7582.072 -239.082 7698.002 C -403.382 7810.742 -551.562 7951.842 -674.852 8110.692 C -794.982 8265.472 -895.802 8446.292 -964.122 8629.802 C -998.532 8722.222 -1025.992 8817.102 -1046.562 8913.542 C -1051.702 8937.632 -1079.922 8951.642 -1102.672 8945.392 C -1127.602 8938.542 -1139.672 8913.462 -1134.522 8889.292 C -1090.792 8684.332 -1015.152 8485.992 -911.962 8303.582 C -809.062 8121.672 -678.072 7954.642 -525.352 7811.932 C -372.162 7668.792 -196.732 7548.692 -6.532 7460.292 C 192.728 7367.692 405.208 7309.412 623.748 7286.782 C 859.768 7262.342 1099.908 7282.292 1329.938 7339.762 C 1561.388 7397.582 1783.938 7493.862 1985.988 7620.532 C 2188.668 7747.602 2372.898 7905.612 2527.248 8088.472 C 2566.048 8134.432 2599.508 8185.572 2639.658 8230.202 C 2647.918 8239.392 2656.548 8247.192 2666.758 8253.972 C 2681.358 8263.672 2659.408 8251.412 2670.688 8255.602 C 2676.288 8257.682 2661.858 8255.272 2668.458 8255.392 C 2670.968 8255.432 2673.478 8255.672 2675.998 8255.722 C 2700.988 8256.102 2716.898 8252.242 2742.828 8246.832 C 2773.088 8240.512 2803.078 8232.982 2833.068 8225.562 C 2862.148 8218.372 2895.388 8205.422 2925.588 8206.852 C 2989.378 8209.862 3030.058 8282.822 2997.438 8338.382 C 2982.688 8363.512 2953.508 8380.482 2931.788 8399.192 C 2908.328 8419.402 2885.488 8440.362 2863.678 8462.342 C 2844.798 8481.392 2824.578 8502.932 2809.598 8523.242 C 2803.098 8532.072 2796.968 8541.242 2791.518 8550.762 C 2788.898 8555.342 2786.398 8560.002 2784.148 8564.792 C 2787.438 8557.762 2782.498 8569.972 2781.518 8572.722 C 2780.908 8574.442 2780.768 8576.322 2780.188 8578.052 C 2778.128 8584.182 2780.008 8570.002 2780.318 8576.112 C 2780.508 8579.982 2780.368 8583.812 2780.658 8587.722 C 2781.918 8604.162 2785.378 8620.492 2789.088 8636.532 C 2796.778 8669.742 2807.628 8702.132 2819.378 8734.092 C 2841.498 8794.282 2865.808 8853.462 2884.228 8914.952 C 2949.528 9132.942 2960.458 9363.162 2926.388 9587.552 C 2892.628 9809.922 2812.678 10024.952 2701.548 10220.062 C 2590.348 10415.322 2446.308 10593.342 2278.238 10742.502 C 2126.528 10877.142 1955.118 10988.482 1769.608 11070.642 C 1600.328 11145.542 1422.098 11198.142 1239.128 11226.542 C 1055.968 11254.942 869.978 11261.442 685.368 11244.442 C 502.558 11227.642 321.688 11189.942 148.138 11129.942 C -24.382 11070.242 -190.232 10989.832 -342.012 10888.242 C -492.522 10787.502 -630.182 10666.872 -746.612 10527.982 C -867.592 10383.662 -964.902 10222.552 -1036.542 10048.442 C -1133.242 9813.462 -1179.912 9556.552 -1179.022 9302.782 C -1178.542 9163.942 -1163.042 9025.142 -1134.522 8889.292 C -1129.452 8865.182 -1101.112 8851.202 -1078.422 8857.442 C -1053.422 8864.312 -1041.492 8889.352 -1046.562 8913.542"
          transform="matrix(0.133333, 0, 0, -0.133333, -891.332642, 1446.665771)"/>
    <path id="path20" style="fill:#211d1d;fill-opacity:1;fill-rule:nonzero;stroke:none"
          d="M 2876.948 10803.762 C 2908.878 10775.052 2939.418 10744.832 2968.318 10713.072 C 2982.268 10697.742 2995.838 10682.072 3009.018 10666.072 C 3025.178 10646.472 3030.698 10639.372 3044.228 10621.032 C 3094.788 10552.492 3138.298 10478.942 3174.268 10401.752 C 3184.378 10380.062 3217.288 10372.902 3236.668 10385.392 C 3258.998 10399.792 3263.838 10424.592 3253.028 10447.792 C 3178.908 10606.832 3071.908 10750.942 2941.448 10868.252 C 2923.708 10884.202 2894.208 10887.062 2876.948 10868.252 C 2860.968 10850.852 2857.998 10820.792 2876.948 10803.762"
          transform="matrix(0.133333, 0, 0, -0.133333, -891.332642, 1446.665771)"/>
    <path id="path22" style="fill:#211d1d;fill-opacity:1;fill-rule:nonzero;stroke:none"
          d="M 3163.248 10793.352 C 3186.998 10765.642 3210.748 10737.942 3234.498 10710.232 C 3241.758 10701.762 3255.958 10696.872 3266.748 10696.872 C 3277.928 10696.872 3291.288 10701.842 3298.988 10710.232 C 3306.968 10718.922 3312.898 10730.332 3312.348 10742.472 C 3311.808 10746.512 3311.258 10750.552 3310.718 10754.602 C 3308.548 10762.322 3304.638 10769.032 3298.988 10774.722 C 3275.238 10802.432 3251.488 10830.132 3227.738 10857.842 C 3220.488 10866.312 3206.288 10871.202 3195.498 10871.202 C 3184.308 10871.202 3170.948 10866.232 3163.248 10857.842 C 3155.268 10849.152 3149.348 10837.742 3149.888 10825.602 C 3150.438 10821.552 3150.978 10817.512 3151.518 10813.472 C 3153.688 10805.752 3157.598 10799.042 3163.248 10793.352"
          transform="matrix(0.133333, 0, 0, -0.133333, -891.332642, 1446.665771)"/>
    <path id="path210" style="fill:#211d1d;fill-opacity:1;fill-rule:nonzero;stroke:none"
          d="M 1966.698 7375.962 C 2080.658 7420.002 2185.838 7481.472 2280.108 7559.172 C 2292.788 7569.622 2290.928 7591.342 2280.108 7602.162 C 2267.558 7614.712 2249.818 7612.642 2237.108 7602.162 C 2151.508 7531.612 2054.018 7474.582 1950.538 7434.592 C 1935.228 7428.682 1924.638 7414.162 1929.308 7397.192 C 1933.328 7382.562 1951.308 7370.012 1966.698 7375.962"
          transform="matrix(0.133333, 0, 0, -0.133333, -891.332642, 1446.665771)"/>
    <path id="path212" style="fill:#211d1d;fill-opacity:1;fill-rule:nonzero;stroke:none"
          d="M 2251.778 7402.652 C 2267.218 7414.232 2282.668 7425.812 2298.108 7437.392 C 2301.648 7439.302 2304.498 7441.922 2306.638 7445.232 C 2309.328 7448.162 2311.138 7451.612 2312.078 7455.562 C 2313.348 7459.612 2313.528 7463.642 2312.618 7467.692 C 2312.438 7471.732 2311.238 7475.502 2309.008 7478.992 C 2304.828 7485.482 2298.598 7491.202 2290.838 7492.962 C 2288.148 7493.332 2285.458 7493.692 2282.758 7494.052 C 2277.278 7494.032 2272.158 7492.652 2267.418 7489.902 C 2251.968 7478.322 2236.528 7466.732 2221.088 7455.152 C 2217.538 7453.242 2214.698 7450.632 2212.558 7447.322 C 2209.868 7444.382 2208.058 7440.942 2207.108 7436.982 C 2205.848 7432.942 2205.668 7428.902 2206.568 7424.852 C 2206.758 7420.812 2207.958 7417.042 2210.178 7413.552 C 2214.368 7407.062 2220.598 7401.352 2228.348 7399.582 C 2231.038 7399.222 2233.738 7398.862 2236.428 7398.502 C 2241.918 7398.512 2247.038 7399.892 2251.778 7402.652"
          transform="matrix(0.133333, 0, 0, -0.133333, -891.332642, 1446.665771)"/>
    <path id="path222" style="fill:#211d1d;fill-opacity:1;fill-rule:nonzero;stroke:none"
          d="M 2267.098 11635.442 C 2169.148 11562.242 2094.438 11465.542 2048.678 11352.142 C 2068.218 11352.142 2087.768 11352.142 2107.308 11352.142 C 2061.208 11465.542 1986.458 11562.242 1888.238 11635.442 C 1888.238 11617.942 1888.238 11600.442 1888.238 11582.942 C 1986.348 11656.342 2061.178 11753.042 2107.308 11866.542 C 2087.768 11866.542 2068.218 11866.542 2048.678 11866.542 C 2094.478 11753.042 2169.248 11656.442 2267.098 11582.942 C 2280.238 11573.042 2301.088 11580.842 2308.698 11593.842 C 2317.798 11609.342 2310.968 11625.542 2297.798 11635.442 C 2213.858 11698.442 2146.598 11785.342 2107.308 11882.742 C 2095.718 11911.442 2060.328 11911.442 2048.678 11882.742 C 2009.098 11785.342 1941.708 11698.442 1857.548 11635.442 C 1838.218 11620.942 1838.148 11597.342 1857.548 11582.942 C 1941.798 11520.142 2009.128 11433.242 2048.678 11335.942 C 2060.298 11307.342 2095.698 11307.142 2107.308 11335.942 C 2146.568 11433.242 2213.768 11520.142 2297.798 11582.942 C 2310.928 11592.742 2317.658 11609.242 2308.698 11624.542 C 2301.128 11637.442 2280.338 11645.342 2267.098 11635.442"
          transform="matrix(0.133333, 0, 0, -0.133333, -891.332642, 1446.665771)"/>
    <path id="path236" style="fill:#211d1d;fill-opacity:1;fill-rule:nonzero;stroke:none"
          d="M -1061.402 8035.562 C -1007.762 7967.092 -954.122 7898.612 -900.482 7830.142 C -893.782 7821.592 -878.532 7816.782 -868.232 7816.782 C -857.052 7816.782 -843.692 7821.752 -835.992 7830.142 C -817.612 7850.152 -820.212 7874.502 -835.992 7894.632 C -889.632 7963.112 -943.272 8031.582 -996.912 8100.052 C -1003.602 8108.602 -1018.872 8113.412 -1029.162 8113.412 C -1040.342 8113.412 -1053.702 8108.442 -1061.402 8100.052 C -1079.782 8080.042 -1077.172 8055.692 -1061.402 8035.562"
          transform="matrix(0.133333, 0, 0, -0.133333, -891.332642, 1446.665771)"/>
    <path id="path238" style="fill:#211d1d;fill-opacity:1;fill-rule:nonzero;stroke:none"
          d="M -1140.152 7874.842 C -1099.412 7827.282 -1058.682 7779.722 -1017.942 7732.152 C -1010.692 7723.692 -996.482 7718.802 -985.692 7718.802 C -974.512 7718.802 -961.152 7723.772 -953.452 7732.152 C -935.672 7751.512 -936.842 7777.252 -953.452 7796.652 C -994.182 7844.212 -1034.922 7891.772 -1075.662 7939.342 C -1082.912 7947.802 -1097.122 7952.702 -1107.912 7952.702 C -1119.092 7952.702 -1132.452 7947.732 -1140.152 7939.342 C -1157.922 7919.982 -1156.762 7894.242 -1140.152 7874.842"
          transform="matrix(0.133333, 0, 0, -0.133333, -891.332642, 1446.665771)"/>
    <path id="path240" style="fill:#211d1d;fill-opacity:1;fill-rule:nonzero;stroke:none"
          d="M -967.922 10571.872 C -954.572 10598.822 -939.962 10625.112 -923.972 10650.592 C -916.182 10663.012 -908.082 10675.242 -899.672 10687.272 C -895.052 10693.882 -890.342 10700.432 -885.542 10706.912 C -883.802 10709.272 -882.032 10711.612 -880.272 10713.962 C -871.622 10725.492 -885.602 10707.362 -876.662 10718.662 C -839.282 10765.872 -797.432 10809.212 -751.452 10848.102 C -733.162 10863.562 -734.332 10896.882 -751.452 10912.592 C -770.902 10930.452 -796.442 10929.082 -815.942 10912.592 C -911.732 10831.592 -990.972 10730.302 -1046.672 10617.912 C -1057.262 10596.562 -1053.112 10567.552 -1030.322 10555.512 C -1009.712 10544.622 -979.232 10549.052 -967.922 10571.872"
          transform="matrix(0.133333, 0, 0, -0.133333, -891.332642, 1446.665771)"/>
    <path id="path242" style="fill:#211d1d;fill-opacity:1;fill-rule:nonzero;stroke:none"
          d="M -983.962 10807.122 C -982.112 10813.142 -979.972 10819.022 -977.522 10824.822 C -979.062 10821.192 -980.592 10817.562 -982.122 10813.932 C -976.082 10827.902 -968.372 10840.992 -959.122 10853.082 C -961.502 10850.002 -963.882 10846.922 -966.252 10843.852 C -956.902 10855.862 -946.192 10866.642 -934.212 10876.032 C -937.282 10873.652 -940.372 10871.282 -943.442 10868.902 C -937.212 10873.702 -930.712 10878.082 -923.932 10882.052 C -914.032 10887.832 -906.012 10898.242 -902.972 10909.302 C -899.962 10920.222 -901.322 10934.752 -907.562 10944.442 C -920.952 10965.202 -947.922 10973.692 -969.962 10960.802 C -1018.842 10932.222 -1055.282 10885.372 -1071.922 10831.372 C -1078.942 10808.572 -1063.582 10780.632 -1040.062 10775.272 C -1015.362 10769.642 -991.492 10782.712 -983.962 10807.122"
          transform="matrix(0.133333, 0, 0, -0.133333, -891.332642, 1446.665771)"/>
</svg>