<?xml version="1.0" encoding="utf-8"?>
<svg viewBox="136.261 696.189 594.206 476.944" width="594.206" height="476.944" xmlns="http://www.w3.org/2000/svg">
    <path id="path48" style="fill:#211d1d;fill-opacity:1;fill-rule:nonzero;stroke:none"
          d="m 8447.6,4835.47 c 42.86,70.56 84.76,126.85 138.5,186.45 53.3,59.1 111.91,113.17 174.38,162.43 3.18,2.51 9.16,7.12 16.83,12.87 8.15,6.12 16.36,12.14 24.63,18.09 15.94,11.45 32.09,22.58 48.45,33.41 33.54,22.2 67.92,43.08 103.04,62.67 71.11,39.68 143.06,73.03 214.13,100.2 76.79,29.35 155.56,53.5 235.51,72.6 40.24,9.62 80.78,17.95 121.53,25.03 20.02,3.47 40.1,6.64 60.21,9.5 2.62,0.38 12.37,1.72 10.85,1.52 -1.51,-0.2 8.25,1.06 10.88,1.38 11.3,1.42 22.61,2.74 33.93,3.96 81.65,8.84 163.84,12.72 245.95,11.6 41.32,-0.56 82.63,-2.4 123.88,-5.52 20.9,-1.58 41.8,-3.51 62.7,-5.76 9.6,-1.04 19.2,-2.15 28.8,-3.33 4.8,-0.59 9.6,-1.2 14.4,-1.83 5.4,-0.71 0.9,-0.12 -0.1,0.02 3.1,-0.43 6.3,-0.88 9.5,-1.33 80.7,-11.48 160.6,-28.08 239.1,-50.11 81,-22.75 163.4,-52.51 236.1,-85.14 156.7,-70.4 305.8,-164.63 434.4,-272.17 67.2,-56.14 130.7,-116.62 190.3,-180.75 59.6,-64.06 113.8,-130.09 163.2,-198.56 51.6,-71.47 98.9,-146.02 141.6,-223.1 41.6,-74.89 81.3,-157.3 111.8,-232.4 68.2,-168.07 117.1,-345.62 139.8,-525.71 26.6,-210 16.3,-414.22 -53.2,-613.57 -57.6,-164.92 -154.3,-321.92 -271.4,-452.52 -124.6,-138.8 -269.8,-250.1 -435.3,-336 -182.2,-94.6 -381.6,-153.6 -584.4,-183.8 -203.1,-30.3 -411.5,-29.8 -615.21,-5.8 -86.99,10.3 -180.8,27.3 -269.68,48.5 -90.34,21.5 -179.47,48.2 -266.71,80.1 -171.73,62.7 -338.16,147.9 -490.02,253.7 -147.45,102.7 -284.83,230.5 -395.42,373.5 -109.52,141.71 -194,302.91 -248.22,472.29 -55.74,174.16 -80.99,348.83 -74.82,531.27 5.82,172.1 43.14,350.02 113.95,506.56 36.03,79.63 80.37,155.26 132.24,225.6 14.62,19.84 3.3,50.9 -16.36,62.4 -23.18,13.55 -47.74,3.52 -62.4,-16.36 -109.91,-149.05 -185.37,-322.83 -224.65,-503.57 -40.5,-186.28 -44,-377.99 -16.77,-566.35 26.91,-186.16 86.45,-367.8 174.28,-534.13 88.55,-167.71 208.77,-319.21 347.07,-448.61 139.63,-130.6 298.85,-240.4 468.92,-327.6 172.62,-88.4 356.58,-155.2 545.4,-199.3 197.46,-46.2 401.22,-68.7 604,-66.1 214.5,2.7 430.2,33.5 634.8,98.8 196.8,62.9 382,157.3 544.9,284.7 149.1,116.6 277.9,261 374.9,423.8 98.5,165.36 162,349.7 182.1,541.31 22.8,217.21 -8.5,440.8 -65.4,650.73 -47.6,175.53 -117.2,345.59 -205.4,504.6 -88.5,159.44 -196.6,308.57 -320.8,442 -122.8,131.87 -262.8,248.61 -415.5,344.33 -151.3,94.76 -316.5,168.77 -488.5,216.58 -163.2,45.38 -333.4,68 -502.75,69.9 -172.03,1.93 -345.02,-17.77 -512.17,-58.59 -163.79,-40 -323.41,-101.29 -470.26,-184.36 -143.39,-81.11 -275.91,-184.33 -385.3,-307.8 -53.96,-60.91 -102.73,-126.64 -144.97,-196.19 -30.55,-50.31 48.29,-96.19 78.75,-46.04 v 0"
          transform="matrix(0.133333, 0, 0, -0.133333, -891.332642, 1446.665771)"/>
    <path id="path50" style="fill:#211d1d;fill-opacity:1;fill-rule:nonzero;stroke:none"
          d="m 11793.1,4485.81 c 15.4,-24.13 29.9,-48.85 43.3,-74.2 6.4,-12.32 12.7,-24.79 18.7,-37.37 3,-6.3 5.9,-12.63 8.7,-18.98 1.6,-3.53 3.2,-7.07 4.7,-10.62 0.5,-1.06 4.4,-10.23 1.8,-4.06 22.1,-52.87 39.4,-107.68 52.2,-163.53 5.3,-23.28 33.3,-39.21 56.1,-31.85 24.3,7.88 37.5,31.16 31.8,56.1 -26.7,116.91 -74,229.52 -138.6,330.55 -12.8,20.07 -41.1,30.07 -62.4,16.36 -20.1,-12.95 -30.1,-40.9 -16.3,-62.4 v 0"
          transform="matrix(0.133333, 0, 0, -0.133333, -891.332642, 1446.665771)"/>
    <path id="path52" style="fill:#211d1d;fill-opacity:1;fill-rule:nonzero;stroke:none"
          d="m 11965.5,4551.43 c 3.3,-4.22 3.6,-4.63 1,-1.26 1.8,-2.35 3.5,-4.71 5.3,-7.09 3.4,-4.75 6.9,-9.56 10.2,-14.41 6.7,-9.69 13.1,-19.58 19.2,-29.65 11.9,-19.51 22.7,-39.67 32.4,-60.35 2.2,-4.68 4.3,-9.39 6.4,-14.1 2.1,-4.97 2.3,-5.41 0.6,-1.31 1.1,-2.72 2.2,-5.45 3.3,-8.19 4.3,-10.96 8.3,-22.04 12.1,-33.23 7.4,-22.38 13.4,-45.17 18.3,-68.24 5,-23.37 33.7,-39.12 56.1,-31.85 24.7,7.98 37.2,31.06 31.9,56.1 -21.7,102.13 -68.1,196.18 -132.3,278.08 -14.8,18.85 -49.2,16.66 -64.5,0 -18.4,-20.01 -15.8,-44.38 0,-64.5 v 0"
          transform="matrix(0.133333, 0, 0, -0.133333, -891.332642, 1446.665771)"/>
    <path id="path54" style="fill:#211d1d;fill-opacity:1;fill-rule:nonzero;stroke:none"
          d="m 7848.86,3195.96 c 63.74,-126.82 148.58,-243.16 249.29,-343.16 16.96,-16.9 47.8,-18.2 64.5,0 16.66,18.1 18.09,46.5 0,64.5 -48,47.6 -93.39,100.48 -128.93,149.66 -40.02,55.39 -75.42,113.99 -106.1,175.03 -10.74,21.36 -42.6,29.13 -62.4,16.36 -21.83,-14.07 -27.84,-39.55 -16.36,-62.39 v 0"
          transform="matrix(0.133333, 0, 0, -0.133333, -891.332642, 1446.665771)"/>
    <path id="path56" style="fill:#211d1d;fill-opacity:1;fill-rule:nonzero;stroke:none"
          d="m 7720.35,2990.3 c 35.43,-45.4 70.86,-90.9 106.29,-136.4 6.67,-8.5 21.98,-13.3 32.25,-13.3 11.18,0 24.54,5 32.24,13.3 7.98,8.7 13.9,20.1 13.36,32.3 -0.54,4 -1.09,8.1 -1.63,12.1 -2.17,7.7 -6.07,14.5 -11.73,20.1 -35.43,45.5 -70.86,90.96 -106.29,136.43 -6.67,8.55 -21.98,13.35 -32.25,13.35 -11.18,0 -24.54,-4.96 -32.24,-13.35 -7.98,-8.69 -13.91,-20.11 -13.36,-32.25 0.54,-4.04 1.09,-8.08 1.63,-12.12 2.17,-7.73 6.07,-14.46 11.73,-20.16 v 0"
          transform="matrix(0.133333, 0, 0, -0.133333, -891.332642, 1446.665771)"/>
    <path id="path224" style="fill:#211d1d;fill-opacity:1;fill-rule:nonzero;stroke:none"
          d="m 7981.67,4804.22 c -51.24,-38.57 -89.15,-87.66 -113.36,-147.06 19.55,0 39.09,0 58.63,0 -24.38,59.4 -62.29,108.52 -113.66,147.06 0,-17.5 0,-35 0,-52.5 51.31,38.67 89.26,87.78 113.66,147.21 -19.54,0 -39.08,0 -58.63,0 24.23,-59.44 62.18,-108.51 113.36,-147.21 13.1,-9.92 34,-2.08 41.6,10.91 9.11,15.58 2.23,31.66 -10.91,41.59 -37.25,28.18 -67.78,67.61 -85.42,110.88 -11.7,28.72 -46.86,28.66 -58.63,0 -17.77,-43.29 -48.37,-82.73 -85.72,-110.88 -19.32,-14.56 -19.39,-37.96 0,-52.5 37.39,-28.05 67.96,-67.47 85.72,-110.73 11.74,-28.6 46.9,-28.77 58.63,0 17.63,43.24 48.13,82.66 85.42,110.73 13.09,9.86 19.88,26.25 10.91,41.59 -7.55,12.91 -28.41,20.85 -41.6,10.91"
          transform="matrix(0.133333, 0, 0, -0.133333, -891.332642, 1446.665771)"/>
</svg>