<?xml version="1.0" encoding="utf-8"?>
<svg viewBox="-599.886 741.387 556.69 413.897" width="556.69" height="413.897" xmlns="http://www.w3.org/2000/svg">
    <path id="path38" style="fill:#211d1d;fill-opacity:1;fill-rule:nonzero;stroke:none"
          d="m 2664.06,4807.01 c 406.6,123.15 835.45,98.04 1253.24,63 212.57,-17.83 425.06,-38.57 638.33,-45.79 107.11,-3.63 214.38,-3.83 321.43,1.62 109.69,5.58 218.78,18.47 328.18,27.67 192.59,16.2 392.91,21.07 573.48,-57.4 76.3,-33.15 146.27,-79.72 201.31,-142.45 61.51,-70.1 95.12,-158.66 115.52,-248.54 22.44,-98.95 31.5,-201.1 37.27,-302.22 6.38,-111.73 6.48,-223.71 4.62,-335.57 -1.84,-110.65 -5.58,-221.27 -6.93,-331.93 -1.22,-99.97 3.82,-200.06 0.65,-299.96 -2.78,-88.1 -10.49,-176.14 -21.81,-263.54 -7.46,-57.5 -21.48,-120.8 -33.76,-180.6 -6.8,-33 12.21,-58.6 36.2,-78.7 10.05,-8.5 20.53,-16.4 30.45,-25 4.72,-4.1 9.37,-8.3 13.77,-12.7 2.17,-2.2 4.2,-4.5 6.35,-6.7 7.65,-7.9 -0.8,3.5 2.9,-3.6 1.57,-3 3.56,-6.1 5.33,-9 -3.6,5.9 1.08,3.1 -0.62,1.4 -3.13,-3.3 8.51,-11.8 1.16,-1.3 0.54,-0.7 0.3,-5.6 0.15,-7 1.25,11.7 0.08,-0.2 -0.87,-2.5 -4.82,-12 4.85,7.1 -2.03,-4.7 -1.41,-2.4 -2.81,-4.8 -4.46,-7.1 5.33,7.4 -4.9,-4.3 -6.47,-5.6 6.18,5.2 1.19,1 -0.4,0.1 -3.44,-2.1 -6.88,-4.1 -10.54,-5.7 9.27,4.1 -3.04,-0.5 -4.31,-0.9 -2.64,-0.7 -5.35,-1.2 -7.99,-1.9 -12.06,-3.2 8.2,-0.4 -4.42,-0.6 -3.54,-0.1 -7.05,-0.4 -10.59,-0.4 -3.56,0 -7.11,0.3 -10.67,0.4 -5.46,0.5 -5.69,0.5 -0.66,-0.2 -2.83,0.4 -5.64,0.9 -8.44,1.5 -6.95,1.4 -13.8,3.2 -20.5,5.5 -2.62,0.9 -5.28,1.9 -7.84,3 9.11,-3.9 -2.94,1.8 -3.91,2.3 -2.82,1.5 -17.55,12 -10.11,5.7 -2.71,2.3 -5.21,5.4 -8.05,7.5 -8.59,6.2 4.27,-6.9 -1.58,1.6 -21.04,30.3 -57.31,27.8 -78.75,0 -90.02,-117 -242.58,-163.9 -385.6,-177.8 -176.52,-17.1 -354.01,4.1 -530.25,14.5 -447.03,26.4 -895.65,26.1 -1342.64,-1 -370.9,-22.5 -803.3,-72.3 -1111.5,183.9 -62.05,51.6 -114.4,112.3 -152.01,183.8 -44.41,84.4 -63.13,180.3 -74.27,274.27 -26.15,220.29 -39.05,442.96 -47.99,664.53 -4.52,112.17 -7.29,224.41 -8.29,336.66 -0.81,90.08 -1.72,180.38 5.55,270.24 11.81,145.94 47.85,300.88 157.89,402.2 26.84,24.7 56.67,44.19 90.58,61.61 52.23,26.83 6.14,105.56 -46.03,78.75 -152.61,-78.4 -238.81,-226.95 -272.75,-390.92 -39.08,-188.8 -28.42,-387.06 -23.91,-578.5 5.41,-229.67 18.21,-459.17 38.36,-688.03 9.54,-108.21 17.37,-218.31 44.2,-323.91 24.21,-95.2 67.02,-182.1 128.59,-258.6 111.13,-138.1 275.94,-228.8 444.44,-276.8 208.9,-59.5 430.34,-54.6 645.07,-41.9 227.66,13.4 454.91,27 683,30.6 232.37,3.7 464.85,0.2 696.99,-10.5 111,-5.1 221.82,-12.6 332.66,-20.2 83.6,-5.8 167.46,-9.9 251.27,-7.5 165.13,4.9 336.67,34.7 469.54,139.4 32.86,25.9 60.4,56 85.85,89.1 -26.25,0 -52.5,0 -78.75,0 42.2,-60.8 131.49,-87.5 201.67,-65.1 76.18,24.4 119.94,111.9 69.46,180.9 -18.41,25.2 -42.63,42.7 -66.02,62.8 -3.78,3.2 -7.26,6.8 -10.96,10.1 -9.13,8.1 3.66,-6.9 -1.66,2.1 4.04,-6.8 3.72,-5.4 3.82,-14 0.18,-14.1 -1.29,-8.5 0.59,-2.8 2.08,6.4 3.46,13.1 5.01,19.6 18.21,76.3 27.98,154.9 36.53,232.8 9.89,90 16.52,180.73 16.18,271.35 -0.41,111.01 -2.3,221.75 0.07,332.78 4.94,231.61 14.58,463.89 -9.06,694.86 -20.53,200.5 -62.82,408.02 -223.65,545.15 -147.26,125.56 -341.83,175.61 -531.83,182.42 -228.5,8.2 -455.53,-35.62 -683.82,-40.07 -222.75,-4.34 -445.22,12.53 -667,31.4 -436.37,37.12 -881.37,84.06 -1314.09,-9.87 -51.9,-11.27 -103.29,-24.67 -154.12,-40.06 -56.03,-16.97 -32.15,-105.03 24.25,-87.95 v 0"
          transform="matrix(0.133333, 0, 0, -0.133333, -891.332642, 1446.665771)"/>
    <path id="path40" style="fill:#211d1d;fill-opacity:1;fill-rule:nonzero;stroke:none"
          d="m 2271.71,2455.2 c 42.26,-75 114.5,-131.4 197.15,-155.1 22.92,-6.6 50.67,8 56.1,31.8 5.53,24.4 -7.31,49.1 -31.86,56.2 -8.37,2.4 -16.65,5.1 -24.77,8.2 -3.35,1.3 -9.86,5.5 1.23,-0.6 -1.88,1 -4.01,1.8 -5.96,2.7 -3.96,1.8 -7.87,3.7 -11.74,5.7 -7.73,4 -15.28,8.3 -22.62,13 -4.03,2.6 -8.01,5.3 -11.91,8.1 -1.42,1 -2.81,2 -4.23,3 -7.77,5.6 8.34,-6.8 0.94,-0.7 -13.5,11 -26.22,22.9 -37.7,36.1 -2.85,3.2 -5.46,6.7 -8.34,10 9.58,-10.8 -0.81,1.3 -2.99,4.4 -5.24,7.5 -10.05,15.3 -14.54,23.2 -11.73,20.8 -41.92,29.6 -62.4,16.4 -21.03,-13.6 -28.9,-40.1 -16.36,-62.4 v 0"
          transform="matrix(0.133333, 0, 0, -0.133333, -891.332642, 1446.665771)"/>
    <path id="path42" style="fill:#211d1d;fill-opacity:1;fill-rule:nonzero;stroke:none"
          d="m 2249.36,2283.9 c 33.33,-39.1 76.34,-71.5 123.35,-92.4 11.58,-5.2 22.43,-8.1 35.14,-4.6 10.58,2.9 22.04,11.1 27.26,20.9 5.59,10.6 8.39,23.5 4.59,35.2 -3.42,10.6 -10.34,22.5 -20.96,27.2 -23.66,10.6 -45.9,23.9 -66.4,39.7 3.07,-2.4 6.15,-4.8 9.23,-7.2 -17.42,13.6 -33.39,28.9 -47.71,45.7 -7.21,8.5 -21.5,13.4 -32.25,13.4 -11.18,0 -24.55,-5 -32.25,-13.4 -7.97,-8.7 -13.9,-20.1 -13.35,-32.2 0.57,-12.7 5.15,-22.6 13.35,-32.3 v 0"
          transform="matrix(0.133333, 0, 0, -0.133333, -891.332642, 1446.665771)"/>
    <path id="path44" style="fill:#211d1d;fill-opacity:1;fill-rule:nonzero;stroke:none"
          d="m 5927.2,4968.81 c 21.94,-11.36 43.31,-23.77 63.95,-37.37 10.85,-7.14 21.51,-14.61 31.95,-22.35 2.08,-1.55 4.14,-3.14 6.23,-4.69 -7.27,5.39 0.11,-0.09 1.56,-1.24 5.09,-4.03 10.13,-8.14 15.12,-12.31 18.93,-15.87 37.02,-32.74 54.16,-50.52 8.56,-8.9 16.89,-18.02 24.98,-27.36 4.25,-4.92 8.43,-9.89 12.54,-14.92 1.65,-2.02 3.28,-4.04 4.9,-6.07 0.65,-0.81 8.58,-11.07 2.46,-3.08 7.55,-9.85 14.77,-17.52 27.25,-20.96 10.92,-3.01 25.46,-1.65 35.15,4.6 18.65,12.02 31.87,42.14 16.36,62.39 -67.45,88.11 -151.77,161.5 -250.58,212.63 -21.17,10.96 -50.49,6.18 -62.39,-16.36 -11.06,-20.92 -6.26,-50.68 16.36,-62.39 v 0"
          transform="matrix(0.133333, 0, 0, -0.133333, -891.332642, 1446.665771)"/>
    <path id="path46" style="fill:#211d1d;fill-opacity:1;fill-rule:nonzero;stroke:none"
          d="m 6091.38,5086.81 c 10.9,-5.84 21.58,-12.06 31.98,-18.74 5.2,-3.35 10.33,-6.8 15.38,-10.35 3.9,-2.74 12.54,-6.85 14.95,-10.96 -1.3,1 -2.6,2 -3.91,3 1.33,-1.05 2.65,-2.1 3.96,-3.16 2.18,-1.76 4.36,-3.54 6.51,-5.35 4.74,-3.97 9.4,-8.03 13.97,-12.18 9.16,-8.31 17.98,-16.98 26.44,-26 8.08,-8.59 15.83,-17.5 23.23,-26.69 1.31,-1.63 8.93,-9.77 1.17,-1.4 1.88,-2.03 3.41,-4.53 5.03,-6.76 3.64,-4.99 7.19,-10.06 10.63,-15.19 13.78,-20.55 25.76,-42.21 36.07,-64.7 9.97,-21.75 43.11,-28.79 62.39,-16.36 22.45,14.47 27.03,39.12 16.36,62.39 -44.78,97.75 -123.46,180.43 -218.12,231.21 -21.01,11.27 -50.61,5.96 -62.4,-16.36 -11.2,-21.19 -6.09,-50.35 16.36,-62.4 v 0"
          transform="matrix(0.133333, 0, 0, -0.133333, -891.332642, 1446.665771)"/>
    <path id="path204" style="fill:#211d1d;fill-opacity:1;fill-rule:nonzero;stroke:none"
          d="m 2432.03,5018.48 c -36.17,-0.69 -73.21,-1.71 -108.43,7.79 -30.7,8.27 -53.26,22.98 -67.46,49.04 -4.76,8.74 -9.12,23.29 -9.23,31.48 -0.12,9.37 -0.22,9.21 1.71,16.03 1.55,5.47 3.16,8.87 6.25,13.01 6.07,8.14 12.71,11.74 21.59,14.12 1.35,0.36 8.32,1.75 5.98,1.42 -1.87,-0.27 5.72,0.29 7.79,0.3 3.02,0.01 6.05,-0.14 9.06,-0.4 0.15,-0.02 5.07,-0.72 2.04,-0.23 -2.74,0.45 3.06,-0.7 3.58,-0.83 27.93,-6.74 49.41,-21.05 62.91,-45.77 7.18,-13.16 24.59,-18.32 37.96,-12.44 14.88,6.54 19.99,20.42 17.61,35.86 -4.12,26.69 -10.49,61.54 5.62,85.56 4.48,6.67 -2.36,-1.83 3.39,3.88 0.59,0.59 7,5.99 3.82,3.64 2.18,1.61 4.58,2.93 6.94,4.25 1.41,0.79 2.86,1.52 4.33,2.18 -1.8,-0.85 -1.73,-0.92 0.21,-0.2 2.49,0.77 5.03,1.55 7.62,1.95 -5.43,-0.84 2.93,-0.13 4.12,-0.19 -5.25,0.24 2.48,-0.57 3.65,-0.97 -4.55,1.55 2.63,-1.58 3.46,-2.26 -3.02,2.47 1.03,-2.02 1.08,-2.12 1,-2.02 1.74,-3.18 2.45,-5.04 2.22,-5.91 2.87,-11.19 3.24,-17.33 1.1,-17.89 0.29,-36.32 -2.1,-54.08 -4.41,-32.81 -14.28,-65.22 -28.81,-94.93 -7.21,-14.75 -4,-32.88 10.9,-41.6 13.38,-7.82 34.36,-3.9 41.6,10.91 22.19,45.37 35.52,93.58 38.83,144.04 2.79,42.26 -0.32,96.47 -44.42,116.97 -38.87,18.06 -84.47,-0.42 -109.01,-33.21 -29.52,-39.44 -22.55,-92.26 -15.56,-137.61 18.53,7.81 37.05,15.62 55.57,23.43 -36.17,66.24 -136.14,105.84 -199.18,52.73 -71.67,-60.38 -23.42,-171.83 49.08,-206.24 50.67,-24.04 106.79,-24.99 161.81,-23.95 39.07,0.75 39.2,61.56 0,60.81 v 0"
          transform="matrix(0.133333, 0, 0, -0.133333, -891.332642, 1446.665771)"/>
</svg>