<?xml version="1.0" encoding="utf-8"?>
<svg viewBox="78.596 0.102 702.231 581.891" width="702.231" height="581.891" xmlns="http://www.w3.org/2000/svg">
    <path id="path24" style="fill:#211d1d;fill-opacity:1;fill-rule:nonzero;stroke:none"
          d="m 8968.78,9978.62 c 117.54,347.78 420.22,602.98 763.44,715.28 173.54,56.7 359.98,81.7 541.38,53.7 178.3,-27.4 345.7,-99.5 490.7,-206.2 147.3,-108.3 265.4,-251.4 354.6,-410.1 26.9,-47.9 65.2,-75.8 121.7,-71.1 23.5,1.9 46.4,7.2 69.2,12.7 23.9,5.7 35.5,8.3 57,7.9 83.6,-1.7 164,-15 244.1,-41.8 304,-101.46 503.7,-386.48 591.1,-686.52 98.1,-336.54 100,-826.35 -258,-1016.57 -40.7,-21.61 -84.1,-36 -129.4,-44.38 -32,-5.91 -37.9,-42.56 -27.3,-66.99 103.8,-238.99 56,-524.38 -83.2,-738.56 -146.3,-225.12 -396.2,-365 -654.9,-418.5 -131.4,-27.18 -272.7,-36.22 -404.6,-7.73 -35.2,7.6 -70.3,17.63 -103.5,31.5 -30.3,12.63 -56.8,30.47 -85.1,46.63 -65.1,37.17 -146.3,28.79 -204.4,-17.38 -21.2,-16.87 -39.8,-36.8 -61,-53.85 -16.6,-13.35 -39.3,-28.95 -60.7,-42.08 -45.6,-28.05 -90.8,-49.14 -139.13,-66.15 -105.28,-37.02 -210.89,-52.95 -321.15,-54.78 -218.38,-3.61 -444.05,47.37 -631.94,158.78 -98.58,58.44 -180.05,136.36 -255.26,227.21 -86.5,104.48 -158.7,225.59 -196.74,356.36 -18.16,62.43 -28.04,126.44 -26.15,191.53 0.95,32.53 4.94,64.48 12.4,96.16 8.99,38.17 22.04,77.1 9.83,116.2 -20.56,65.81 -94.73,87.99 -150.05,116.31 -49.59,25.39 -98.12,53.17 -143.15,86.08 -88.43,64.6 -157.56,156.51 -194.97,262.62 -43,121.94 -58.78,258.7 -29.87,385.66 14.21,62.39 38.95,120.97 76.15,173.19 19.07,26.79 43.31,49.27 62.74,75.8 25.29,34.55 30.36,74.23 30.53,115.97 0.41,99.09 23.65,200.39 64.71,291.42 45.03,99.84 105.95,188.16 187.14,260.9 75.54,67.68 170.73,117.61 271.53,130.72 49.35,6.41 105.14,3.55 154.5,-6.8 24.09,-5.05 49.3,7.07 56.1,31.85 6.22,22.64 -7.63,51 -31.85,56.1 -120.76,25.3 -242.25,11.9 -354.31,-39.63 -105.99,-48.79 -193.96,-129.75 -263.94,-221.96 -69.23,-91.22 -120.55,-197.79 -149.56,-308.55 -13.83,-52.78 -22.55,-107.42 -24.94,-161.94 -1.37,-31.47 5.02,-66.38 -13.03,-94.01 -18.36,-28.09 -44.64,-51.39 -64.59,-78.59 -82.94,-113.07 -112.82,-259.44 -105.46,-397.58 7.25,-136.26 44.98,-277.6 122.57,-391.15 68.24,-99.88 163.85,-173.34 269.24,-230.71 26.22,-14.27 52.9,-27.67 79.78,-40.65 18.84,-9.09 56.7,-20.41 63.85,-42.06 4.11,-12.42 -1.74,-28.92 -4.78,-40.92 -4.5,-17.73 -8.99,-35.38 -12.17,-53.42 -6.43,-36.54 -10.04,-73.68 -9.84,-110.81 0.76,-146.13 52.02,-288.61 124.37,-414.02 70.24,-121.75 162.6,-234.27 268.86,-326.38 174.67,-151.4 406.01,-228.9 632.69,-255.81 229.23,-27.22 479.49,1 679.69,122.94 25.5,15.54 49.8,32.88 73.3,51.29 21.6,16.92 40.3,37.12 61.7,54.21 18.8,15.11 44.3,23.22 68.1,20.34 32.9,-3.97 59.8,-29.19 88.5,-43.84 134.2,-68.6 290.8,-82.39 439.1,-70.82 284.3,22.19 567.3,135.88 766.7,343.6 196.3,204.37 295.3,495.93 252.5,777.12 -10.3,67.38 -30.4,131.79 -57.5,194.22 -9.1,-22.32 -18.2,-44.66 -27.3,-66.99 216.5,40.03 378.8,215.35 453.4,415.22 71.7,192.24 68.5,407.41 33,607.06 -58.9,331.71 -236.9,665.73 -538.8,834.54 -76.3,42.6 -159.5,74.1 -245.1,91.9 -45.6,9.5 -92,15.5 -138.4,18.3 -20.6,1.2 -41.7,2.8 -62.3,0.7 -24.5,-2.6 -48.2,-9.1 -72.2,-14.6 -8.5,-1.9 -22.3,-4.8 -27.8,-5.3 -5.4,-0.6 -10.8,-0.8 -16.2,-0.6 -15.6,0.6 2.9,-1.2 -5.5,0.7 -7.4,1.6 -4.7,0.1 -10.7,7.9 -9.2,12 -15.5,27 -23,40 -24.2,41.9 -50.5,82.4 -78.9,121.5 -56.7,78.1 -120.6,150.9 -192.5,215.5 -142.1,127.6 -312.1,224.3 -497,274.1 -191.4,51.6 -391.4,49.7 -584.06,5.8 -374.2,-85.1 -725.01,-325.6 -895.42,-675.6 -21.73,-44.7 -40.6,-90.8 -56.5,-137.8 -18.83,-55.76 69.23,-79.68 87.96,-24.28 v 0"
          transform="matrix(0.133333, 0, 0, -0.133333, -891.332642, 1446.665771)"/>
    <path id="path26" style="fill:#211d1d;fill-opacity:1;fill-rule:nonzero;stroke:none"
          d="m 12063.3,7844.09 c 5,-15.72 9.4,-31.61 13,-47.72 1.6,-7.31 3.1,-14.67 4.4,-22.05 0.8,-4.42 1.5,-8.87 2.2,-13.31 1.4,-8.35 0,1.58 0.5,-3.47 3.4,-32.18 5,-64.2 3.1,-96.55 -0.4,-7.48 -1,-14.96 -1.7,-22.42 -0.5,-4.48 -1,-8.95 -1.5,-13.41 0.8,6.63 -0.1,-0.61 -0.5,-3.48 -2.4,-15.56 -5.5,-31.02 -9.2,-46.32 -3.9,-16.02 -8.6,-31.86 -14,-47.44 -2.4,-7.09 -5,-14.12 -7.8,-21.09 0,-0.17 -5.5,-13.19 -2.3,-5.73 -1.7,-4.12 -3.6,-8.22 -5.5,-12.3 -10,-21.61 -6.8,-50.14 16.4,-62.4 20.1,-10.62 51.7,-6.76 62.4,16.36 61.3,132.9 73.3,285.63 28.4,425.57 -7.3,22.68 -32,39.66 -56.1,31.85 -22.7,-7.35 -39.6,-31.77 -31.8,-56.09 v 0"
          transform="matrix(0.133333, 0, 0, -0.133333, -891.332642, 1446.665771)"/>
    <path id="path28" style="fill:#211d1d;fill-opacity:1;fill-rule:nonzero;stroke:none"
          d="m 12192.6,9902.1 c 30.9,-47.29 61.8,-94.58 92.7,-141.87 13,-19.94 41,-30.17 62.4,-16.36 19.9,12.84 30.3,41.04 16.4,62.39 -30.9,47.3 -61.8,94.59 -92.7,141.88 -13.1,19.94 -41,30.16 -62.4,16.36 -19.9,-12.84 -30.3,-41.03 -16.4,-62.4 v 0"
          transform="matrix(0.133333, 0, 0, -0.133333, -891.332642, 1446.665771)"/>
    <path id="path30" style="fill:#211d1d;fill-opacity:1;fill-rule:nonzero;stroke:none"
          d="m 12436.1,9942.64 c 5.2,-20.89 10.5,-41.79 15.7,-62.68 2.7,-10.96 11.3,-21.6 20.9,-27.25 5.3,-3.34 10.9,-5.14 17,-5.42 6.1,-1.35 12.1,-1.08 18.2,0.82 11,3.57 21.7,10.41 27.2,20.96 5.9,11 7.7,22.89 4.6,35.14 -5.2,20.89 -10.4,41.78 -15.6,62.67 -2.8,10.97 -11.3,21.6 -21,27.26 -5.2,3.33 -10.9,5.14 -16.9,5.41 -6.1,1.35 -12.2,1.05 -18.2,-0.82 -11.1,-3.57 -21.7,-10.41 -27.3,-20.95 -5.8,-11.01 -7.6,-22.89 -4.6,-35.14 v 0"
          transform="matrix(0.133333, 0, 0, -0.133333, -891.332642, 1446.665771)"/>
    <path id="path32" style="fill:#211d1d;fill-opacity:1;fill-rule:nonzero;stroke:none"
          d="m 8170.05,9688.39 c 0.17,4.45 0.41,8.89 0.8,13.33 0.17,1.96 0.45,3.93 0.59,5.9 0.46,6.16 -1.52,-9.38 -0.47,-3.3 1.52,8.79 3.09,17.5 5.34,26.15 2.12,8.13 4.64,16.16 7.55,24.05 0.69,1.86 1.42,3.7 2.12,5.55 3.56,9.42 -3.12,-6.64 -0.59,-1.31 1.92,4.02 3.71,8.1 5.71,12.08 3.8,7.5 7.96,14.83 12.46,21.93 2.39,3.76 4.86,7.46 7.44,11.09 1.14,1.62 2.32,3.2 3.49,4.8 4.22,5.79 -1.89,-1.61 -1.69,-2.18 -0.88,2.49 15.74,17.87 17.77,19.91 6.28,6.32 12.92,12.25 19.82,17.88 18.55,15.16 16.9,48.98 0,64.5 -19.72,18.09 -44.71,16.16 -64.5,0 -65.51,-53.51 -103.84,-136.41 -107.05,-220.38 -0.91,-23.87 21.63,-46.68 45.61,-45.61 25.49,1.14 44.63,20.04 45.6,45.61 v 0"
          transform="matrix(0.133333, 0, 0, -0.133333, -891.332642, 1446.665771)"/>
    <path id="path34" style="fill:#211d1d;fill-opacity:1;fill-rule:nonzero;stroke:none"
          d="m 8781.88,6825.57 c -5.36,-3.35 -10.87,-6.23 -16.5,-9.09 -9.42,-4.79 9.6,2.97 -0.39,-0.05 -2.87,-0.86 -5.67,-1.93 -8.56,-2.75 -5,-1.44 -12.81,-1.35 -17.27,-3.72 7.54,4 7.08,0.83 0.59,0.45 -3.84,-0.22 -7.68,-0.27 -11.51,-0.17 -2.86,0.08 -5.71,0.36 -8.57,0.51 -10.19,0.52 10.79,-2.27 0.84,-0.12 -5.57,1.2 -11.09,2.3 -16.54,3.98 -2.72,0.83 -5.35,1.84 -8.04,2.73 -9.53,3.15 9.39,-4.81 0.48,-0.2 -5.47,2.82 -10.88,5.55 -16.07,8.88 -1.99,1.27 -3.89,2.66 -5.85,3.96 -8.33,5.52 7.64,-6.95 0.29,-0.18 -4.18,3.87 -8.41,7.58 -12.28,11.79 -0.61,0.65 -4.94,6.52 -5.59,6.47 2.37,0.18 5.9,-8.29 0.31,-0.02 -3.82,5.64 -6.89,11.57 -10.05,17.59 -4.74,9.07 3.16,-9.85 0.04,-0.03 -0.9,2.85 -1.96,5.63 -2.81,8.51 -0.69,2.39 -5.58,16.12 -3.94,17.88 0.28,-1.98 0.56,-3.95 0.84,-5.92 -0.22,2.1 -0.39,4.21 -0.52,6.32 -0.19,3.22 -0.27,6.46 -0.24,9.69 0.02,3.52 0.35,7.02 0.48,10.54 0.54,5.23 0.41,4.57 -0.39,-1.97 0.37,2.2 0.78,4.38 1.25,6.55 1.17,5.33 2.91,10.41 4.5,15.62 3.14,10.26 -4.8,-8.5 0.35,0.8 1.53,2.75 2.86,5.58 4.45,8.29 1.59,2.7 3.39,5.24 5.05,7.89 5.59,8.94 -6.73,-7.06 0.48,0.62 5.05,5.38 10.13,10.43 15.55,15.43 7.87,7.27 -8.25,-5.23 0.8,0.63 2.69,1.74 5.28,3.61 8.01,5.3 5.56,3.44 11.36,6.28 17.16,9.25 9.92,5.1 -9.34,-3.08 1.29,0.56 3.17,1.08 6.29,2.3 9.48,3.32 3.34,1.08 6.72,2.08 10.13,2.95 2.26,0.57 18.28,2.98 6.58,1.76 6.32,0.66 12.65,0.99 19.01,0.85 3.81,-0.09 7.59,-0.41 11.39,-0.72 -11.32,0.93 0.86,-0.31 2.88,-0.75 7.39,-1.59 14.71,-3.76 21.71,-6.63 -10.07,4.12 1.3,-1.05 2.76,-1.85 4.43,-2.44 8.64,-5.17 12.77,-8.08 -7.96,5.61 -0.08,-0.21 1.3,-1.49 2.19,-2.03 4.29,-4.15 6.31,-6.35 7.27,-7.94 0.23,0.09 0.34,0.14 0.26,0.14 4.59,-6.73 4.92,-7.25 1.53,-2.47 2.98,-5 4.33,-7.57 4.51,-8.62 -1.17,-2.44 0.29,0.34 -1.04,-1.98 5.47,-16.54 6.15,-19.48 0.67,-2.87 1.16,-5.76 1.73,-8.65 1.96,-10.06 -0.57,10.69 -0.17,0.41 0.26,-6.97 0.67,-13.83 0.3,-20.81 -0.05,-0.93 -1.23,-8.51 -0.72,-8.94 1.04,7.16 1.18,8.24 0.41,3.22 -0.33,-1.97 -0.7,-3.94 -1.1,-5.89 -1.39,-6.85 -3.24,-13.62 -5.51,-20.23 -0.31,-0.89 -2.34,-8.23 -3.16,-8.4 2.7,6.3 3.03,7.21 0.99,2.72 -0.86,-1.79 -1.75,-3.56 -2.67,-5.31 -0.84,-1.61 -9.84,-18.05 -10.89,-17.58 0.3,-0.13 6.82,8.09 -0.15,0.04 -2.55,-2.94 -5.23,-5.78 -8.04,-8.47 -2.1,-2.03 -4.33,-3.89 -6.5,-5.84 -3.78,-3.05 -3,-2.45 2.32,1.8 -1.58,-1.14 -3.19,-2.23 -4.83,-3.28 -19.88,-13.12 -30.21,-40.92 -16.36,-62.39 12.79,-19.85 41.1,-30.41 62.39,-16.36 58.45,38.55 91.53,110.44 84.28,180.13 -3.98,38.22 -17.64,73.53 -43.86,102.15 -29.73,32.45 -72.89,48.91 -116.01,52.2 -76.9,5.88 -159.19,-41.59 -189.26,-112.85 -28.69,-67.98 -10.58,-152.15 45.09,-201.29 60.85,-53.72 150.16,-63.91 219.76,-20.34 20.21,12.64 29.99,41.25 16.37,62.39 -13.06,20.25 -40.76,29.9 -62.4,16.36"
          transform="matrix(0.133333, 0, 0, -0.133333, -891.332642, 1446.665771)"/>
    <path id="path36" style="fill:#211d1d;fill-opacity:1;fill-rule:nonzero;stroke:none"
          d="m 8401.2,6575.42 c -1.31,-0.22 -2.63,-0.41 -3.94,-0.57 4.04,0.54 8.08,1.08 12.12,1.62 -7.2,-0.84 -14.36,-1 -21.57,-0.18 4.04,-0.54 8.08,-1.08 12.13,-1.62 -5.72,0.78 -11.22,2.15 -16.58,4.29 3.64,-1.53 7.27,-3.06 10.9,-4.6 -4.41,1.9 -8.51,4.22 -12.37,7.08 3.08,-2.37 6.16,-4.75 9.23,-7.12 -3.64,2.84 -6.86,6.03 -9.76,9.62 2.37,-3.08 4.75,-6.15 7.13,-9.23 -3.1,4.03 -5.63,8.34 -7.7,12.98 1.53,-3.63 3.06,-7.26 4.59,-10.89 -2.41,5.72 -4.01,11.63 -4.94,17.76 0.54,-4.03 1.08,-8.08 1.62,-12.12 -0.99,7.51 -0.94,14.99 -0.01,22.51 -0.55,-4.04 -1.09,-8.08 -1.64,-12.12 1.21,8.53 3.51,16.74 6.81,24.7 -1.54,-3.63 -3.07,-7.26 -4.6,-10.89 3.67,8.46 8.34,16.29 13.97,23.59 -2.37,-3.08 -4.75,-6.16 -7.13,-9.24 3.32,4.09 6.93,7.69 11,11.03 -3.08,-2.38 -6.16,-4.76 -9.24,-7.13 4.78,3.64 9.79,6.62 15.31,9 -3.64,-1.53 -7.27,-3.07 -10.9,-4.6 4.13,1.6 8.25,2.75 12.62,3.48 -4.04,-0.54 -8.08,-1.09 -12.12,-1.63 4.38,0.53 8.6,0.56 12.98,0.05 -4.04,0.54 -8.09,1.08 -12.13,1.63 4.87,-0.83 9.52,-2.24 14.09,-4.09 -3.63,1.54 -7.26,3.07 -10.89,4.6 5.2,-2.24 10.03,-5.02 14.58,-8.39 -3.08,2.37 -6.16,4.75 -9.23,7.13 5.07,-3.94 9.52,-8.44 13.44,-13.52 -2.37,3.07 -4.75,6.15 -7.12,9.23 3.81,-5.13 6.96,-10.61 9.53,-16.47 -1.54,3.64 -3.07,7.26 -4.6,10.9 3.01,-7.18 5.06,-14.63 6.17,-22.33 -0.54,4.03 -1.08,8.08 -1.62,12.12 0.99,-7.67 1.05,-15.34 0.1,-23.01 0.54,4.05 1.08,8.08 1.63,12.13 -0.94,-6.64 -2.59,-13.04 -5.09,-19.26 1.53,3.63 3.06,7.26 4.6,10.9 -2.24,-5.27 -5.01,-10.19 -8.43,-14.78 2.38,3.07 4.76,6.15 7.14,9.23 -3.28,-4.21 -6.96,-7.95 -11.15,-11.25 3.07,2.37 6.15,4.75 9.23,7.13 -4.09,-3.08 -8.44,-5.61 -13.12,-7.68 3.63,1.54 7.27,3.07 10.89,4.6 -5.15,-2.14 -10.43,-3.62 -15.93,-4.59 -10.64,-1.87 -22,-11.97 -27.25,-20.95 -5.72,-9.78 -8.14,-24.19 -4.6,-35.15 3.57,-11.03 10.41,-21.67 20.96,-27.25 11.42,-6.03 22.44,-6.83 35.14,-4.6 41.48,7.3 75.51,41.98 84.41,82.8 9.11,41.84 -1.44,84.81 -29.84,116.98 -13.6,15.42 -33.25,26.95 -53.03,32.29 -34.73,9.38 -71.83,-3.16 -96.86,-28.24 -32.7,-32.78 -48.23,-85.21 -35.74,-130.13 7.07,-25.41 23.16,-47.26 45.51,-61.27 25.97,-16.29 56.26,-16.99 85.55,-12.43 10.55,1.64 22.1,12.16 27.25,20.96 5.72,9.78 8.15,24.18 4.6,35.14 -3.57,11.04 -10.41,21.68 -20.96,27.25 -11.52,6.09 -22.34,6.6 -35.14,4.6"
          transform="matrix(0.133333, 0, 0, -0.133333, -891.332642, 1446.665771)"/>
    <path id="path202" style="fill:#211d1d;fill-opacity:1;fill-rule:nonzero;stroke:none"
          d="m 7556.99,10091.7 c -52.83,26.6 -101.24,58.5 -142.84,99.9 -18.89,18.9 -31.77,34 -44.89,53.9 -5.61,8.5 -10.82,17.3 -15.5,26.3 -2.41,4.7 -4.63,9.4 -6.78,14.2 2.47,-5.5 0.56,-1.4 0.12,-0.2 -1.14,3.1 -2.37,6.1 -3.45,9.2 -2.81,8.2 -5.11,16.5 -6.73,24.9 -0.42,2.2 -0.75,4.4 -1.11,6.6 1.39,-8.4 0.16,-1.2 0.07,0.6 -0.28,4.9 -0.59,9.7 -0.45,14.7 0.1,3.4 0.46,6.7 0.74,10.1 -0.79,-9.7 0.75,2.9 1.41,5.5 0.95,3.8 2.35,7.3 3.52,11 -2.54,-8 1.03,2 2.67,4.9 1.92,3.3 4.11,6.5 6.34,9.6 -5.22,-7.3 1.26,1.1 2.89,2.8 2.83,2.9 5.9,5.5 8.96,8.2 -6.12,-5.3 -0.93,-0.7 0.57,0.2 2.44,1.6 4.82,3.2 7.32,4.7 3.25,1.9 6.71,3.4 9.99,5.2 6.67,3.7 -5.98,-1.9 1.41,0.6 2.31,0.8 4.58,1.8 6.9,2.6 10.12,3.4 20.53,5.7 31.05,7.5 9.3,1.6 -6.12,-0.4 3.51,0.5 4.07,0.4 8.13,0.8 12.21,1.1 6.49,0.4 12.99,0.6 19.49,0.6 14.17,0.1 22.52,-1.6 34.4,-8.9 10.45,-6.5 18.43,-15.2 24.4,-27 5.16,-10.2 6.18,-21.5 2.97,-32.7 19.91,-2.7 39.82,-5.4 59.72,-8.1 0,-0.5 0.5,9.3 0.02,5 -0.47,-4.3 1.1,4.9 1.01,4.6 0.48,1.9 1.05,3.7 1.67,5.5 2.82,8.5 -1.57,-2.6 0.9,2 5.67,10.7 5.76,10.5 15.04,18.8 4.08,3.7 -5.64,-3.7 2.04,1.7 1.63,1.1 3.3,2.2 5,3.3 1.71,1 3.45,2 5.21,3 0.13,0 9.02,4.3 3.68,2 3.72,1.6 7.61,2.8 11.49,3.9 2.44,0.7 4.9,1.2 7.37,1.8 1.48,0.3 2.97,0.5 4.47,0.8 -2.6,-0.4 -2.79,-0.5 -0.59,-0.3 4.51,0.3 8.98,0.4 13.5,0.2 9.3,-0.4 -3.11,0.8 2.29,-0.2 2.44,-0.5 4.86,-1 7.26,-1.7 1.91,-0.5 3.82,-1.1 5.69,-1.8 -4.69,1.7 1.19,-0.5 2.34,-1.1 3.81,-2.1 12.07,-9.3 4.64,-2.1 3.04,-3 6.11,-5.8 9.08,-8.8 5.26,-5.4 -3,5.1 0.38,-0.5 1.53,-2.5 3.27,-4.9 4.74,-7.5 1.27,-2.2 2.39,-4.4 3.55,-6.7 3.77,-7.4 -0.22,1.6 0.81,-1.7 1.89,-6.1 4.1,-12 5.54,-18.2 0.76,-3.3 1.24,-6.7 1.95,-10 0.97,-4.5 -0.34,5.5 0.25,-2.4 0.56,-7.5 0.91,-14.9 0.65,-22.4 -0.13,-4 -0.46,-7.9 -0.78,-11.9 -0.13,-1.6 -0.35,-3.2 -0.54,-4.9 0.81,7 0.17,1.2 -0.17,-0.5 -1.64,-8.7 -3.44,-17.2 -5.94,-25.7 -5.79,-19.6 -9.98,-28.9 -20.57,-47.4 -27.57,-48.2 -69.47,-87.6 -115.5,-120.1 -13.39,-9.5 -19.7,-26.6 -10.91,-41.6 7.75,-13.2 28.12,-20.4 41.6,-10.9 86.7,61.2 169.06,149.9 173.57,261.8 1.32,32.7 -5.28,68 -22.68,96.1 -21.7,35.2 -60.85,54.3 -102.26,50.7 -59.7,-5.2 -115.85,-49.5 -116.6,-112.8 -0.42,-34.5 50.33,-41 59.72,-8.1 21.3,74.7 -45.34,145.3 -118.71,145.6 -50.45,0.2 -105.49,-10.3 -143.27,-46.2 -77.18,-73.4 -23.2,-188.4 33.02,-255.4 48.74,-58 113.11,-103 180.44,-136.9 14.66,-7.4 32.95,-3.9 41.6,10.9 7.9,13.5 3.81,34.2 -10.91,41.6 v 0"
          transform="matrix(0.133333, 0, 0, -0.133333, -891.332642, 1446.665771)"/>
</svg>