<?xml version="1.0" encoding="utf-8"?>
<svg viewBox="813.028 905.919 356.831 17.215" width="356.831" height="17.215" xmlns="http://www.w3.org/2000/svg">
    <path id="path80" style="fill:#1a1817;fill-opacity:1;fill-rule:nonzero;stroke:none"
          d="m 2777.85,904.969 c -58.47,3.422 -117.02,5.863 -175.53,8.801 -19.3,0.96 -38.67,1.019 -57.99,1.519 -41.9,1.07 -83.81,2.141 -125.71,3.211 -23.33,0.602 -46.69,1.34 -70.02,1.789 -6.76,0.133 -13.52,0.18 -20.29,0.18 -15.2,0 -30.41,-0.231 -45.6,-0.258 -69.13,-0.07 -138.25,-0.152 -207.39,-0.231 -16.45,-0.019 -32.92,-0.41 -49.36,-0.64 -40.75,-0.52 -81.48,-1.051 -122.23,-1.602 -45.96,-0.59 -91.94,-0.84 -137.89,-1.976 -74.38,-1.844 -148.75,-3.68 -223.13,-5.532 -43.05,-1.05 -86.14,-1.66 -129.18,-3.378 -74.17,-2.954 -148.33,-5.883 -222.5,-8.801 -40.52,-1.59 -81.08,-2.922 -121.57,-5.18 -76.69,-4.262 -153.374,-8.543 -230.073,-12.832 -40.981,-2.289 -82.004,-3.98 -122.895,-7.469 -76.351,-6.5 -152.707,-13.011 -229.058,-19.519 -16.493,-1.403 -32.993,-2.801 -49.504,-4.219 -32.965,-2.801 -65.825,-7.16 -98.7,-10.871 -2.058,-0.293 -4.125,-0.563 -6.191,-0.84 -3.93,-1.109 -7.348,-3.09 -10.258,-5.992 -4.34,-4.34 -6.812,-10.277 -6.812,-16.438 0,-6.14 2.472,-12.109 6.812,-16.441 3.946,-3.961 10.668,-7.461 16.449,-6.82 39.668,4.468 79.278,9.211 119.055,12.582 36.852,3.136 73.699,6.258 110.551,9.379 40.223,3.41 80.434,6.82 120.644,10.218 16.196,1.379 32.438,3.2 48.661,4.102 62.707,3.48 125.41,6.91 188.125,10.348 39.082,2.16 78.184,4.312 117.264,6.472 16.15,0.891 32.3,2 48.45,2.641 62.14,2.5 124.29,4.769 186.42,7.148 37.67,1.45 75.33,2.871 112.99,4.321 12.66,0.488 25.32,1.097 37.98,1.41 67.11,1.551 134.2,3.07 201.3,4.59 37.47,0.859 74.93,1.711 112.4,2.57 13.35,0.309 26.68,0.758 40.02,0.891 69.2,0.718 138.39,1.418 207.59,2.128 43.18,0.45 86.31,0.86 129.49,0.75 73.48,-0.179 146.97,-0.351 220.44,-0.519 14.5,-0.031 28.99,-0.641 43.48,-1.063 40.56,-1.187 81.12,-2.378 121.67,-3.566 30.42,-0.902 60.85,-1.793 91.28,-2.684 21.58,-0.628 43.15,-2.238 64.71,-3.41 63.49,-3.429 126.96,-6.968 190.44,-10.929 16.11,-1.008 32.22,-2.231 48.34,-3.411 17.26,-1.25 34.58,-2.468 51.79,-4.418 2.68,-0.441 5.34,-0.941 8.02,-1.519 6.78,-1.43 13.31,-1.039 19.4,2.539 5.64,3.289 9.84,8.762 11.58,15.051 3.64,13.238 -4.37,27.308 -17.59,30.969 -11.56,3.199 -23.57,4.48 -35.49,5.679 -8.16,0.832 -16.32,1.66 -24.48,2.473 -15.7,1.578 -31.52,2.379 -47.25,3.566 -29.51,2.223 -59.11,3.512 -88.66,5.231"
          transform="matrix(0.133333, 0, 0, -0.133333, 770.899231, 1028.647705)"/>
</svg>