<?xml version="1.0" encoding="utf-8"?>
<svg viewBox="791.16 281.901 357.712 25.123" width="357.712" height="25.123" xmlns="http://www.w3.org/2000/svg">
    <path id="path34" style="fill:#1a1817;fill-opacity:1;fill-rule:nonzero;stroke:none"
          d="m 2550.25,5538.23 c 12.44,0.01 24.87,0.02 37.3,0.02 1.13,-2.76 2.81,-5.27 5.02,-7.29 -4.81,-0.33 -9.62,-0.65 -14.43,-0.83 -9.07,-0.33 -18.13,-0.67 -27.18,-1.01 -39.56,-1.49 -79.13,-2.98 -118.67,-4.45 -18.11,-0.68 -36.22,-1.68 -54.33,-1.96 -28.29,-0.44 -56.6,-0.89 -84.9,-1.35 -64.66,-1.02 -129.34,-2.03 -193.99,-3.07 -125.54,-2.03 -251.08,-3.98 -376.61,-5.96 -89.89,-1.43 -179.76,-4.24 -269.63,-6.61 -135.41,-3.59 -270.84,-7.18 -406.25,-10.77 -27.14,-0.72 -54.291,-2.45 -81.412,-3.75 -76.863,-3.69 -153.73,-7.36 -230.578,-11.06 -75.465,-3.61 -150.914,-7.23 -226.379,-10.84 -6.988,-0.34 -13.965,-0.67 -20.953,-1.01 20.336,1.63 40.676,3.26 61.015,4.81 71.016,5.42 142.036,10.86 213.059,16.29 24.801,1.9 49.598,3.79 74.406,5.68 12.793,0.98 25.617,1.59 38.418,2.38 73.856,4.47 147.704,8.94 221.564,13.42 14.43,0.89 28.88,2.05 43.33,2.61 20.8,0.81 41.61,1.61 62.41,2.42 76.15,2.95 152.3,5.91 228.45,8.86 16.75,0.65 33.5,1.3 50.25,1.96 4.42,0.17 8.83,0.18 13.25,0.27 11.76,0.22 23.53,0.47 35.29,0.71 76.31,1.56 152.62,3.12 228.92,4.67 35.16,0.72 70.31,1.55 105.47,1.84 113.46,0.91 226.9,2.09 340.36,2.6 115.61,0.53 231.21,1.33 346.8,1.42 z M 210.191,5506.14 c 21.262,-0.22 42.524,1.04 63.762,1.69 8.649,0.28 17.293,0.75 25.93,1.18 38.086,1.9 76.172,3.78 114.269,5.68 45.547,2.26 91.09,4.69 136.633,7.22 65.055,3.63 130.11,7.26 195.145,10.89 14.918,0.83 29.836,1.4 44.746,2.09 37.906,1.8 75.797,3.57 113.703,5.35 37.902,1.78 75.809,3.56 113.711,5.33 14.83,0.7 29.69,1.6 44.52,2.08 60.48,1.92 120.97,3.8 181.44,5.72 37.18,1.15 74.38,2.33 111.56,3.51 14.56,0.45 29.14,1.14 43.71,1.35 58.46,0.84 116.91,1.76 175.38,2.64 57.69,0.86 115.39,1.72 173.08,2.59 15.23,0.22 30.47,0.12 45.69,0.18 37.67,0.14 75.33,0.29 112.99,0.43 58.56,0.23 117.12,0.4 175.7,0.68 19.15,0.1 38.31,-0.13 57.46,-0.19 40.09,-0.14 80.19,-0.29 120.3,-0.42 3.32,-0.02 6.63,-0.04 9.95,-0.06 -90.27,-1.21 -180.54,-2.43 -270.81,-3.78 -37.69,-0.56 -75.39,-1.11 -113.09,-1.67 -16.25,-0.24 -32.54,-0.3 -48.79,-0.72 -54.54,-1.42 -109.08,-2.96 -163.6,-4.44 -63.04,-1.7 -126.07,-3.4 -189.11,-5.1 -10.59,-0.29 -21.18,-0.89 -31.76,-1.39 -33.56,-1.55 -67.13,-3.09 -100.7,-4.64 -68.08,-3.13 -136.16,-6.29 -204.26,-9.41 -10.08,-0.47 -20.14,-1.18 -30.2,-1.87 -33.26,-2.29 -66.52,-4.58 -99.77,-6.89 -59.569,-4.11 -119.139,-8.19 -178.694,-12.34 -16.422,-1.14 -32.828,-2.75 -49.234,-4.14 -38.145,-3.21 -76.282,-6.42 -114.426,-9.63 -48.481,-4.08 -96.977,-8.02 -145.442,-12.26 -67.468,-5.88 -134.918,-11.76 -202.363,-17.67 -16.183,-1.42 -32.363,-2.82 -48.547,-4.24 -29,-2.53 -57.91,-6.19 -86.851,-9.38 -3.059,-0.33 -5.664,-2.32 -5.664,-5.66 0,-3.2 2.574,-5.53 5.664,-5.67 10.574,-0.46 21.156,-0.93 31.73,-1.37 -1.301,-2.75 -2.066,-5.75 -2.066,-8.83 0,-10.8 9.445,-21.46 20.742,-20.77 82.715,5.16 165.394,10.76 248.18,14.71 71.867,3.42 143.746,6.84 215.605,10.26 79.457,3.78 158.914,7.57 238.375,11.36 25.024,1.19 50.027,2.38 75.041,3.58 7.21,0.33 14.45,0.8 21.66,0.98 128,3.41 256,6.72 384,10.08 68.41,1.79 136.81,3.58 205.21,5.38 24.72,0.65 49.42,1.2 74.14,1.6 130.92,2.04 261.84,4.08 392.76,6.14 56.09,0.89 112.2,1.81 168.29,2.7 47.89,0.77 95.8,1.1 143.66,2.89 39.55,1.5 79.11,3 118.68,4.49 19.73,0.74 39.51,1.22 59.23,2.46 44.91,2.83 89.81,5.69 134.71,8.7 -0.04,-0.06 -0.07,-0.12 -0.11,-0.17 -2.53,-4.33 -3.21,-9.58 -1.88,-14.41 1.28,-4.67 4.41,-8.72 8.59,-11.16 3.93,-2.31 9.97,-3.65 14.4,-1.89 9.79,3.9 19.54,7.88 29.24,11.94 -0.2,-0.09 -0.4,-0.17 -0.6,-0.26 0.72,0.31 1.43,0.61 2.16,0.91 0.83,0.35 1.66,0.7 2.49,1.05 -0.3,-0.12 -0.6,-0.25 -0.91,-0.38 5.19,2.18 10.36,4.37 15.53,6.55 5.42,2.26 10.85,4.54 16.24,6.91 5.88,2.56 11.5,5.68 17.16,8.7 6.4,3.41 10.32,10.88 10.32,17.99 -0.02,3.77 -0.96,7.26 -2.85,10.52 -2.5,4.29 -7.37,8.69 -12.45,9.58 -5.01,0.87 -10.01,1.54 -15.06,2.19 -1.1,0.13 -2.23,0.19 -3.38,0.19 -3.4,0 -6.95,-0.48 -10.21,-0.71 -7.62,-0.54 -15.2,-1.67 -22.82,-2.23 -6.23,-0.45 -12.43,-0.9 -18.65,-1.34 -16.76,-1.22 -33.49,-2.44 -50.23,-3.64 -4.33,-0.31 -8.66,-0.57 -12.99,-0.86 1.57,1.79 2.71,3.83 3.36,6.15 0.79,1.84 1.22,3.77 1.33,5.77 0.18,1.42 0.37,2.85 0.57,4.27 -0.01,1.85 -0.34,3.61 -0.93,5.3 0.43,0.2 0.87,0.38 1.3,0.58 3.15,1.87 5.67,4.38 7.54,7.55 1.91,3.28 2.86,6.82 2.87,10.62 -0.01,3.8 -0.96,7.32 -2.87,10.6 -1.09,1.42 -2.19,2.84 -3.29,4.27 -2.62,2.6 -5.71,4.4 -9.28,5.41 -6.46,2.47 -13.23,3.06 -20.06,3.06 -5.59,0 -11.22,-0.4 -16.76,-0.46 -8.04,-0.07 -16.09,-0.16 -24.15,-0.24 -11.39,-0.12 -22.78,-0.28 -34.17,-0.34 -30.08,-0.15 -60.19,-0.29 -90.27,-0.46 -28.31,-0.16 -56.62,-0.13 -84.93,-0.12 -25.73,0.04 -51.46,0.05 -77.18,-0.06 -102.57,-0.45 -205.12,-0.61 -307.67,-1.65 -76.91,-0.77 -153.81,-1.55 -230.72,-2.33 -34.38,-0.36 -68.74,-0.89 -103.12,-1.61 -77.06,-1.62 -154.13,-3.26 -231.19,-4.89 -21.98,-0.47 -43.96,-0.94 -65.93,-1.4 -12.74,-0.28 -25.49,-0.94 -38.23,-1.42 -76.16,-2.89 -152.33,-5.78 -228.49,-8.66 -23.25,-0.89 -46.49,-1.77 -69.74,-2.66 -13.03,-0.47 -26.06,-1.35 -39.09,-2.04 -75.65,-4.07 -151.306,-8.14 -226.958,-12.19 -39.059,-2.09 -78.086,-4.45 -117.118,-6.92 -66.832,-4.22 -133.664,-8.45 -200.492,-12.65 -57.902,-3.63 -115.828,-6.78 -173.742,-10.17 -9.187,-0.53 -18.363,-1.07 -27.523,-1.6 -14.825,-0.87 -29.676,-1.46 -44.524,-2.12 -13.156,-0.59 -26.39,-0.95 -39.59,-0.61 -1.328,3.42 -4.66,6.21 -8.465,5.91 -8.515,-0.68 -17.011,-1.6 -25.507,-2.51 -4.125,-0.44 -7.7,-2.49 -8.871,-6.76 -1.301,-4.71 1.55,-10.15 6.429,-11.32 3.692,-0.89 7.367,-1.81 11.074,-2.66 3.633,-0.83 7.469,-1.05 11.149,-1.38 9.734,-0.86 19.512,-1.06 29.269,-1.14"
          transform="matrix(0.133333, 0, 0, -0.133333, 770.899231, 1028.647705)"/>
</svg>